{"title":"Karadayi 720p S03.DVD 4 Greek Subs","uid":11388148,"size":1732630878,"categoryP":"video","categoryS":"hd___tv_shows","magnet":"?xt=urn:btih:471b4977d91e9c99beac5029bfd4d78941175afd&amp;dn=Karadayi+720p+S03.DVD+4+Greek+Subs&amp;tr=udp%3A%2F%2Ftracker.openbittorrent.com%3A80&amp;tr=udp%3A%2F%2Fopen.demonii.com%3A1337&amp;tr=udp%3A%2F%2Ftracker.coppersurfer.tk%3A6969&amp;tr=udp%3A%2F%2Fexodus.desync.com%3A6969","seeders":8,"leechers":0,"uploader":"Falcon.G13","files":1,"time":1415294580,"description":" &lt;a href=&quot;http://i.imgur.com/zhFXmBI.jpg&quot; rel=&quot;nofollow&quot; target=&quot;_NEW&quot;&gt;http://i.imgur.com/zhFXmBI.jpg&lt;/a&gt; &lt;a href=&quot;\nhttp://i.imgur.com/xzyaRfc.jpg&quot; rel=&quot;nofollow&quot; target=&quot;_NEW&quot;&gt;\nhttp://i.imgur.com/xzyaRfc.jpg&lt;/a&gt; &lt;a href=&quot;\nhttp://i.imgur.com/ZsLfyja.jpg&quot; rel=&quot;nofollow&quot; target=&quot;_NEW&quot;&gt;\nhttp://i.imgur.com/ZsLfyja.jpg&lt;/a&gt; &lt;a href=&quot;\nhttp://i.imgur.com/MXbSt0x.jpg&quot; rel=&quot;nofollow&quot; target=&quot;_NEW&quot;&gt;\nhttp://i.imgur.com/MXbSt0x.jpg&lt;/a&gt; &lt;a href=&quot;\nhttp://i.imgur.com/b9IZTy2.jpg&quot; rel=&quot;nofollow&quot; target=&quot;_NEW&quot;&gt;\nhttp://i.imgur.com/b9IZTy2.jpg&lt;/a&gt;\n\n\nGeneral\nComplete name                  : Karadayi 720p S03 DVD4 Greek Subs.avi\nFormat                         : AVI\nFormat/Info                    : Audio Video Interleave\nFormat profile                 : OpenDML\nFile size                      : 1.61 GiB\nDuration                       : 1h 35mn\nOverall bit rate               : 2 412 Kbps\nWriting application            : Lavf55.7.100\n\nVideo\nID                             : 0\nFormat                         : MPEG-4 Visual\nFormat profile                 : Advanced Simple@L1\nFormat settings, BVOP          : No\nFormat settings, QPel          : No\nFormat settings, GMC           : No warppoints\nFormat settings, Matrix        : Default (H.263)\nCodec ID                       : XVID\nCodec ID/Hint                  : XviD\nDuration                       : 1h 35mn\nBit rate                       : 1 760 Kbps\nWidth                          : 1 280 pixels\nHeight                         : 720 pixels\nDisplay aspect ratio           : 16:9\nFrame rate                     : 25.000 fps\nColor space                    : YUV\nChroma subsampling             : 4:2:0\nBit depth                      : 8 bits\nScan type                      : Progressive\nCompression mode               : Lossy\nBits/(Pixel*Frame)             : 0.076\nStream size                    : 1.18 GiB (73%)\nWriting library                : Lavc55.12.100\n\nAudio\nID                             : 1\nFormat                         : AC-3\nFormat/Info                    : Audio Coding 3\nMode extension                 : CM (complete main)\nFormat settings, Endianness    : Big\nCodec ID                       : 2000\nDuration                       : 1h 35mn\nBit rate mode                  : Constant\nBit rate                       : 640 Kbps\nChannel(s)                     : 6 channels\nChannel positions              : Front: L C R, Side: L R, LFE\nSampling rate                  : 48.0 KHz\nBit depth                      : 16 bits\nCompression mode               : Lossy\nStream size                    : 438 MiB (27%)\nAlignment                      : Aligned on interleaves\nInterleave, duration           : 32 ms (0.80 video frame)\nInterleave, preload duration   : 32 ms","torrent":{"xt":"urn:btih:471b4977d91e9c99beac5029bfd4d78941175afd","amp;dn":"Karadayi+720p+S03.DVD+4+Greek+Subs","amp;tr":["udp%3A%2F%2Ftracker.openbittorrent.com%3A80","udp%3A%2F%2Fopen.demonii.com%3A1337","udp%3A%2F%2Ftracker.coppersurfer.tk%3A6969","udp%3A%2F%2Fexodus.desync.com%3A6969"],"infoHash":"471b4977d91e9c99beac5029bfd4d78941175afd","infoHashBuffer":{"type":"Buffer","data":[71,27,73,119,217,30,156,153,190,172,80,41,191,212,215,137,65,23,90,253]},"announce":[],"urlList":[]}}